<?xml version="1.0" encoding="UTF-8"?>
<svg id="Layer_2" xmlns="http://www.w3.org/2000/svg" version="1.1" viewBox="0 0 149 172">
  <!-- Generator: Adobe Illustrator 29.3.1, SVG Export Plug-In . SVG Version: 2.1.0 Build 151)  -->
  <defs>
    <style>
      .st0 {
        fill: #fcb017;
      }

      .st0, .st1, .st2, .st3 {
        opacity: .75;
      }

      .st1 {
        fill: #73bf44;
      }

      .st2 {
        fill: #e51e29;
      }

      .st3 {
        fill: #4374ba;
      }
    </style>
  </defs>
  <path class="st1" d="M80.11,62.87c-.1,4.17-2.59,7.91-4.55,11.56-6.87,11.95-14.04,24.33-20.92,36.26-4.49,7.77-9.9,17.19-14.25,24.64-5.67,9.82-7.2,8.8-12.79-.79-3.33-5.72-7.89-13.6-11.1-19.23-4.28-7.48-5.71-11.28-1.67-18.54,8.62-15.43,17.6-30.6,26.39-46.04,3.71-6.37,8.11-14.18,11.73-20.21,1.65-2.4,4.12-7.67,7.31-4.48,2.2,2.33,3.8,5.41,5.73,8.65,1.41,2.44,2.98,5.16,4.54,7.85,2.2,3.83,4.15,7.12,6.05,10.56,2.2,3.98,3.52,6.9,3.52,9.72v.07Z"/>
  <path class="st0" d="M46.08,47.22c3.05-1.62,6.7-1.6,10.17-1.71,7.04-.08,15.93-.01,23.01-.03,15.62.01,33.34-.04,48.96.03,8.15.3,11.8.02,5.82,9.74-4.69,7.6-9.62,16.5-14.78,23.85-4.21,6.15-11.1,5.35-17.67,5.48-6.99,0-15.32,0-22.11,0-12.19.03-23.34.06-35.47.05-4.25,0-9.15.04-13.04-.08-3.22-.12-5.38-.44-6.26-1.38-1.87-2.06,2.07-7.29,3.17-9.46,3.13-5.2,7.4-12.24,10.57-17.42,2.14-3.32,4.16-7.09,7.58-9.05l.06-.03Z"/>
  <path class="st3" d="M102.28,62.87c-.1,4.17-2.59,7.91-4.55,11.56-6.87,11.95-14.04,24.33-20.92,36.26-4.49,7.77-9.9,17.19-14.25,24.64-5.67,9.82-7.2,8.8-12.79-.79-3.33-5.72-7.89-13.6-11.1-19.23-4.28-7.48-5.71-11.28-1.67-18.54,8.62-15.43,17.6-30.6,26.39-46.04,3.71-6.37,8.11-14.18,11.73-20.21,1.65-2.4,4.12-7.67,7.31-4.48,2.2,2.33,3.8,5.41,5.73,8.65,1.41,2.44,2.98,5.16,4.54,7.85,2.2,3.83,4.15,7.12,6.05,10.56,2.2,3.98,3.52,6.9,3.52,9.72v.07Z"/>
  <path class="st2" d="M33.87,26.77c3.05-1.62,6.7-1.6,10.17-1.71,7.04-.08,15.93-.01,23.01-.03,15.62.01,33.34-.04,48.96.03,8.15.3,11.8.02,5.82,9.74-4.69,7.6-9.62,16.5-14.78,23.85-4.21,6.15-11.1,5.35-17.67,5.48-6.99,0-15.32,0-22.11,0-12.19.03-23.34.06-35.47.05-4.25,0-9.15.04-13.04-.08-3.22-.12-5.38-.44-6.26-1.38-1.87-2.06,2.07-7.29,3.17-9.46,3.13-5.2,7.4-12.24,10.57-17.42,2.14-3.32,4.16-7.09,7.58-9.05l.06-.03Z"/>
</svg>